HIERARCHY
ROOT Hips
{
 OFFSET 0.000000 0.000000 0.000000
 CHANNELS 6 Xposition Yposition Zposition Yrotation Xrotation Zrotation
 JOINT Chest
 {
  OFFSET 0.000000 9.585900 0.002600
  CHANNELS 3 Yrotation Xrotation Zrotation
  JOINT Chest2
  {
   OFFSET 0.000000 9.601200 -0.005300
   CHANNELS 3 Yrotation Xrotation Zrotation
   JOINT Chest3
   {
    OFFSET 0.000000 9.561800 0.000000
    CHANNELS 3 Yrotation Xrotation Zrotation
    JOINT Chest4
    {
     OFFSET 0.000000 9.552100 0.000000
     CHANNELS 3 Yrotation Xrotation Zrotation
     JOINT Neck
     {
      OFFSET 0.000000 14.453000 0.000000
      CHANNELS 3 Yrotation Xrotation Zrotation
      JOINT Head
      {
       OFFSET 0.000000 8.936500 -0.011300
       CHANNELS 3 Yrotation Xrotation Zrotation
       End Site
       {
        OFFSET 0.000000 17.073600 -0.006000
       }
      }
     }
     JOINT RightCollar
     {
      OFFSET -2.921100 9.558500 0.000000
      CHANNELS 3 Yrotation Xrotation Zrotation
      JOINT RightShoulder
      {
       OFFSET -13.519700 0.000000 0.000000
       CHANNELS 3 Yrotation Xrotation Zrotation
       JOINT RightElbow
       {
        OFFSET 0.000000 -29.696600 0.000000
        CHANNELS 3 Yrotation Xrotation Zrotation
        JOINT RightWrist
        {
         OFFSET 0.000000 -24.004700 0.000000
         CHANNELS 3 Yrotation Xrotation Zrotation
         End Site
         {
          OFFSET 0.000000 -17.728500 0.000000
         }
        }
       }
      }
     }
     JOINT LeftCollar
     {
      OFFSET 2.921100 9.558500 0.000000
      CHANNELS 3 Yrotation Xrotation Zrotation
      JOINT LeftShoulder
      {
       OFFSET 13.519700 0.000000 0.000000
       CHANNELS 3 Yrotation Xrotation Zrotation
       JOINT LeftElbow
       {
        OFFSET 0.000000 -29.696600 0.000000
        CHANNELS 3 Yrotation Xrotation Zrotation
        JOINT LeftWrist
        {
         OFFSET 0.000000 -24.004700 0.000000
         CHANNELS 3 Yrotation Xrotation Zrotation
         End Site
         {
          OFFSET 0.000000 -17.728500 0.000000
         }
        }
       }
      }
     }
    }
   }
  }
 }
 JOINT RightHip
 {
  OFFSET -7.771700 -0.012900 -0.001300
  CHANNELS 3 Yrotation Xrotation Zrotation
  JOINT RightKnee
  {
   OFFSET 0.000000 -40.869800 0.001200
   CHANNELS 3 Yrotation Xrotation Zrotation
   JOINT RightAnkle
   {
    OFFSET 0.000000 -39.717900 0.002100
    CHANNELS 3 Yrotation Xrotation Zrotation
    JOINT RightToe
    {
     OFFSET 0.000000 -4.965400 11.033500
     CHANNELS 3 Yrotation Xrotation Zrotation
     End Site
     {
      OFFSET 0.000000 -1.423100 5.872300
     }
    }
   }
  }
 }
 JOINT LeftHip
 {
  OFFSET 7.771700 -0.012900 -0.001300
  CHANNELS 3 Yrotation Xrotation Zrotation
  JOINT LeftKnee
  {
   OFFSET 0.000000 -40.869800 0.001200
   CHANNELS 3 Yrotation Xrotation Zrotation
   JOINT LeftAnkle
   {
    OFFSET 0.000000 -39.717900 0.002100
    CHANNELS 3 Yrotation Xrotation Zrotation
    JOINT LeftToe
    {
     OFFSET 0.000000 -4.965400 11.033500
     CHANNELS 3 Yrotation Xrotation Zrotation
     End Site
     {
      OFFSET 0.000000 -1.423100 5.872300
     }
    }
   }
  }
 }
}
MOTION
Frames: 11
Frame Time: 0.008333
-171.570262 48.914685 15.428480 176.896896 -33.706161 -7.404435 0.157341 19.346333 1.408729 -0.004341 2.308392 0.166553 -0.009820 3.755214 0.274446 0.109820 16.706365 1.219816 3.324159 19.522199 -2.656465 6.879969 0.695937 -5.864032 -1.644883 -1.384297 -1.188233 1.777379 -9.856412 -13.158308 -42.439414 -60.729702 89.046951 5.384433 5.543791 -18.548272 0.477571 -1.497591 1.881064 -2.748104 -4.787280 15.543753 97.351410 -77.413673 -129.632137 2.809577 12.491270 13.088189 2.371155 -50.583435 3.501275 -156.386466 82.503083 -144.142572 -29.032825 -6.545035 0.267261 -0.071558 -6.332279 1.888101 -16.700002 -52.571750 24.420665 -73.604075 64.240892 -79.402824 30.969922 7.911469 16.509922 -0.026312 0.042449 0.012772
-171.594700 48.901436 15.436132 176.870353 -33.613338 -7.359402 0.157011 19.262823 1.377169 0.002784 2.336134 0.169472 -0.006143 3.779223 0.267973 0.110230 16.661502 1.206536 3.329007 19.421455 -2.791885 6.936423 0.520712 -6.119430 -1.629069 -1.372659 -1.210611 1.856314 -9.881439 -13.145662 -42.208243 -60.548514 88.937694 5.280299 5.505479 -18.657394 0.478829 -1.508554 1.880494 -2.919904 -4.825598 15.561596 97.304736 -77.413908 -129.602684 2.803536 12.397649 13.260886 2.056219 -50.598883 3.241641 -153.778831 82.172204 -141.582071 -29.132223 -6.550222 0.191318 -0.062545 -6.492595 2.007098 -16.639617 -52.698114 24.361006 -73.646409 64.256821 -79.432077 30.966634 7.904315 16.516966 -0.025375 0.045821 0.018131
-171.617456 48.893386 15.435216 176.850693 -33.572671 -7.318974 0.167260 19.261928 1.354973 0.006028 2.335279 0.169909 -0.004088 3.772183 0.263878 0.117341 16.648642 1.190200 3.333107 19.315796 -2.923543 6.990952 0.336265 -6.368259 -1.623481 -1.378474 -1.207150 1.936939 -9.887978 -13.158519 -41.991662 -60.353932 88.836279 5.164418 5.444833 -18.847884 0.515374 -1.516834 1.864514 -3.139162 -4.865389 15.594588 97.262834 -77.423704 -129.566583 2.818102 12.349656 13.467288 1.723206 -50.553240 3.014426 -151.709880 81.902992 -139.546343 -29.263594 -6.526941 0.098765 -0.030381 -6.673608 2.102190 -16.555300 -52.773610 24.277759 -73.689591 64.276607 -79.465093 30.985953 7.883178 16.543982 -0.050273 0.052660 0.010066
-171.635201 48.887204 15.431765 176.833926 -33.544280 -7.301834 0.199659 19.322681 1.376408 -0.009590 2.265037 0.152229 0.006838 3.785640 0.264898 0.131063 16.637148 1.174867 3.337120 19.206733 -3.051658 7.044964 0.145370 -6.611082 -1.629362 -1.391089 -1.197164 2.018747 -9.880174 -13.176413 -41.801838 -60.148042 88.755340 5.041033 5.364950 -19.098817 0.529969 -1.530708 1.869857 -3.343822 -4.898865 15.603557 97.171327 -77.439237 -129.470887 2.840215 12.335344 13.640803 1.355545 -50.490353 2.846874 -150.080763 81.699846 -137.933975 -29.379320 -6.470522 0.005203 -0.016122 -6.879950 2.153410 -16.494682 -52.828125 24.230271 -73.727375 64.295814 -79.499081 31.005921 7.881754 16.575995 -0.069887 0.038639 0.000524
-171.651766 48.877759 15.432437 176.797997 -33.479946 -7.274844 0.229852 19.295295 1.385762 -0.011935 2.245558 0.143404 0.018195 3.798276 0.267215 0.129325 16.615384 1.164445 3.360444 19.110790 -3.185753 7.097958 -0.049562 -6.846725 -1.638313 -1.399640 -1.189946 2.063104 -9.871264 -13.186889 -41.575980 -59.920546 88.684359 4.914967 5.268799 -19.379692 0.564780 -1.529140 1.869077 -3.546734 -4.935541 15.606381 97.046431 -77.461638 -129.272938 2.847410 12.319003 13.733162 0.994487 -50.464528 2.697372 -148.832896 81.567820 -136.689920 -29.490492 -6.397555 -0.099372 -0.005563 -7.089992 2.173274 -16.439145 -52.915427 24.209879 -73.765224 64.304716 -79.521158 31.007863 7.884618 16.573613 -0.064984 0.034884 0.008456
-171.668360 48.866829 15.434077 176.711482 -33.405901 -7.213071 0.295153 19.250020 1.386666 -0.006165 2.245234 0.141801 0.024258 3.795272 0.262760 0.129813 16.593993 1.154611 3.389715 19.016863 -3.316699 7.149636 -0.248233 -7.074628 -1.613825 -1.404587 -1.192699 2.144329 -9.819980 -13.190378 -41.466198 -59.677928 88.641725 4.793895 5.163775 -19.658432 0.602139 -1.525056 1.872660 -3.735721 -4.975791 15.605591 96.903291 -77.481555 -129.070344 2.870232 12.306527 13.820806 0.679371 -50.455051 2.551404 -147.912345 81.498570 -135.760357 -29.593125 -6.316326 -0.213540 0.003352 -7.300108 2.164280 -16.339068 -53.016450 24.194155 -73.801991 64.306406 -79.545048 31.005729 7.895522 16.561110 -0.049921 0.025931 0.026165
-171.682083 48.857216 15.432950 176.622881 -33.348049 -7.160328 0.363096 19.201744 1.389756 0.007940 2.280407 0.151656 0.024515 3.776928 0.253667 0.193861 16.607050 1.138862 3.375242 18.886602 -3.421790 7.201845 -0.448260 -7.296508 -1.560601 -1.460427 -1.201238 2.123549 -9.734562 -13.146317 -41.365487 -59.412312 88.607085 4.673294 5.057050 -19.914705 0.585437 -1.559979 1.903031 -3.901919 -5.012182 15.603498 96.433624 -77.464499 -128.704034 2.866724 12.306061 13.835789 0.370593 -50.432965 2.435967 -147.187326 81.469443 -135.005812 -29.698095 -6.219831 -0.339617 0.024934 -7.521978 2.140284 -16.238505 -53.100443 24.196100 -73.830111 64.312651 -79.580585 31.009072 7.900669 16.583180 -0.050566 0.012814 0.030356
-171.697788 48.847145 15.430187 176.529399 -33.295863 -7.087223 0.428805 19.159231 1.373692 0.010820 2.280083 0.150495 0.033454 3.793179 0.254155 0.209229 16.589564 1.130646 3.410453 18.789464 -3.543600 7.257672 -0.645264 -7.514557 -1.519046 -1.491620 -1.209714 2.132940 -9.648661 -13.110589 -41.228217 -59.111509 88.561484 4.570700 4.958158 -20.118733 0.621349 -1.567790 1.913363 -4.036723 -5.039828 15.601842 95.980685 -77.427331 -128.320402 2.839009 12.302430 13.695494 0.088252 -50.410172 2.309107 -146.633578 81.468129 -134.412244 -29.801920 -6.123221 -0.484994 0.058166 -7.745304 2.114040 -16.098977 -53.186872 24.173789 -73.825238 64.324094 -79.632375 31.048254 7.891761 16.684899 -0.098266 -0.010959 0.012526
-171.707195 48.836374 15.428476 176.435043 -33.239082 -7.047481 0.491943 19.159035 1.398357 0.024575 2.251952 0.143679 0.042045 3.787962 0.248981 0.261824 16.588991 1.124341 3.421582 18.676061 -3.651524 7.319137 -0.836474 -7.728220 -1.506366 -1.545132 -1.209638 2.130485 -9.552683 -13.064701 -41.080817 -58.799775 88.500076 4.537696 4.913049 -20.197339 0.608705 -1.595228 1.932753 -4.121160 -5.058945 15.603052 95.564651 -77.369251 -127.972592 2.807927 12.313063 13.434548 -0.283346 -50.391189 2.259747 -146.259700 81.490158 -134.013578 -29.859745 -6.025752 -0.638211 0.068312 -7.980091 2.070417 -15.991942 -53.273437 24.203824 -73.877261 64.304706 -79.679907 31.049622 7.903834 16.702184 -0.096843 -0.030770 0.029806
-171.717019 48.824891 15.425968 176.343848 -33.185840 -7.002640 0.552354 19.129626 1.408052 0.033006 2.253713 0.140529 0.052448 3.783038 0.248667 0.317538 16.586706 1.120377 3.432526 18.568260 -3.755754 7.386998 -1.020945 -7.935026 -1.492521 -1.599605 -1.213527 2.121133 -9.451529 -13.011495 -40.915162 -58.500479 88.430254 4.561393 4.944557 -20.107970 0.561841 -1.621935 1.950162 -4.147045 -5.066353 15.604777 95.143418 -77.293216 -127.632832 2.745607 12.336574 13.097113 -0.688407 -50.371277 2.221720 -145.959943 81.505333 -133.704127 -29.886218 -5.940778 -0.789776 0.072203 -8.216197 2.015703 -15.911453 -53.346677 24.229705 -73.913871 64.290996 -79.707097 31.054962 7.918263 16.691202 -0.090123 -0.045002 0.048869
-171.725666 48.813277 15.422512 176.260079 -33.139339 -6.964205 0.608394 19.113743 1.423635 0.038406 2.246784 0.135516 0.067252 3.779219 0.247635 0.367330 16.583910 1.117141 3.447860 18.464696 -3.857820 7.460832 -1.200298 -8.134059 -1.473612 -1.654576 -1.219212 2.093198 -9.368475 -12.966015 -40.707294 -58.215019 88.358261 4.566341 5.006741 -19.911642 0.572001 -1.642633 1.962631 -4.218861 -5.078214 15.608174 94.723928 -77.216399 -127.291648 2.660335 12.362548 12.684395 -1.113468 -50.347197 2.194413 -145.659832 81.500695 -133.392998 -29.899364 -5.868363 -0.950398 0.079327 -8.453624 1.967907 -15.764449 -53.435470 24.237550 -73.990290 64.269926 -79.770502 31.031918 7.926788 16.719689 -0.037931 -0.038457 0.040377
